<?xml version="1.0" standalone="no"?>
<!DOCTYPE svg PUBLIC "-//W3C//DTD SVG 20010904//EN"
 "http://www.w3.org/TR/2001/REC-SVG-20010904/DTD/svg10.dtd">
<svg version="1.0" xmlns="http://www.w3.org/2000/svg"
 width="221.000000pt" height="221.000000pt" viewBox="0 0 221.000000 221.000000"
 preserveAspectRatio="xMidYMid meet">

<g transform="translate(0.000000,221.000000) scale(0.100000,-0.100000)"
fill="#000000" stroke="none">
<path d="M800 1982 c0 -5 19 -12 42 -16 23 -4 56 -16 74 -27 53 -32 67 -76 73
-229 5 -111 9 -135 21 -135 8 1 53 5 99 9 l83 9 -4 131 c-4 142 -15 176 -64
215 -23 18 -24 22 -9 27 32 13 380 -5 432 -22 98 -32 176 -107 210 -204 10
-28 21 -50 25 -50 10 0 9 27 -5 175 l-12 120 -482 3 c-283 1 -483 -1 -483 -6z"/>
<path d="M1075 1524 c-104 -21 -137 -30 -195 -53 -171 -70 -283 -196 -350
-391 -31 -89 -39 -302 -16 -410 47 -221 203 -387 416 -446 79 -21 241 -29 329
-15 182 29 304 134 346 299 9 35 14 68 12 75 -3 8 -6 7 -10 -3 -63 -187 -93
-232 -181 -277 -73 -37 -140 -53 -226 -53 -138 0 -246 46 -331 139 -185 201
-210 606 -56 880 36 63 142 181 164 181 12 0 14 -42 11 -292 -3 -270 -5 -296
-23 -332 -25 -49 -57 -73 -121 -91 -44 -12 -20 -13 246 -13 266 0 290 1 246
13 -60 17 -95 41 -121 86 -19 32 -20 55 -23 357 l-3 322 38 0 c58 0 151 -49
209 -112 58 -61 74 -89 119 -202 17 -44 35 -81 40 -83 13 -4 7 379 -6 392 -7
7 -14 4 -20 -7 -21 -37 -44 -39 -129 -12 -151 47 -280 64 -365 48z"/>
</g>
</svg>
