<?xml version="1.0" encoding="iso-8859-1"?>
<!-- Uploaded to: SVG Repo, www.svgrepo.com, Generator: SVG Repo Mixer Tools -->
<svg height="800px" width="800px" version="1.1" id="Capa_1" xmlns="http://www.w3.org/2000/svg" xmlns:xlink="http://www.w3.org/1999/xlink" 
	 viewBox="0 0 305.267 305.267" xml:space="preserve">
<g>
	<g>
		<path style="fill:white;" d="M44.723,94.857c-3.084,0-6.086-0.321-9.029-0.821v173.158h4.857
			c17.536,2.616,78.556,13.217,112.083,38.073c0,0,32.89-26.184,112.589-38.073h4.351V94.302c-2.388,0.332-4.808,0.56-7.288,0.56
			c-29.289,0-53.031-23.742-53.031-53.031c0-6.271,1.403-12.26,3.796-17.846C170.332,13.549,152.639,0,152.639,0
			c-15.556,11.531-37.024,19.135-57.333,24.133c1.577,5.542,2.448,11.482,2.448,17.699C97.754,71.116,74.012,94.857,44.723,94.857z"
			/>
	</g>
</g>
</svg>